<svg width="60" height="60" viewBox="0 0 60 60" fill="none" xmlns="http://www.w3.org/2000/svg">
  <path d="M45 20H15C13.3431 20 12 21.3431 12 23V37C12 38.6569 13.3431 40 15 40H45C46.6569 40 48 38.6569 48 37V23C48 21.3431 46.6569 20 45 20Z" fill="#8B4513"/>
  <path d="M42 25H18C17.4477 25 17 25.4477 17 26C17 26.5523 17.4477 27 18 27H42C42.5523 27 43 26.5523 43 26C43 25.4477 42.5523 25 42 25Z" fill="#FFF5EE"/>
  <path d="M42 33H18C17.4477 33 17 33.4477 17 34C17 34.5523 17.4477 35 18 35H42C42.5523 35 43 34.5523 43 34C43 33.4477 42.5523 33 42 33Z" fill="#FFF5EE"/>
  <path d="M15 29H45V31H15V29Z" fill="#FFF5EE"/>
</svg> 