<svg width="60" height="60" viewBox="0 0 60 60" fill="none" xmlns="http://www.w3.org/2000/svg">
  <path d="M40 25C40 19.4772 35.5228 15 30 15C24.4772 15 20 19.4772 20 25C20 25.7682 20.0974 26.5115 20.2801 27.2246C19.4708 27.0781 18.6277 27 17.7647 27C13.3961 27 9.58824 29.2386 9.58824 32C9.58824 34.7614 13.3961 37 17.7647 37H42.2353C46.6039 37 50.4118 34.7614 50.4118 32C50.4118 29.2386 46.6039 27 42.2353 27C41.3723 27 40.5292 27.0781 39.7199 27.2246C39.9026 26.5115 40 25.7682 40 25Z" fill="#8B4513"/>
  <circle cx="30" cy="22" r="4" fill="#FFF5EE"/>
  <circle cx="24" cy="32" r="2" fill="#FFF5EE"/>
  <circle cx="36" cy="32" r="2" fill="#FFF5EE"/>
</svg> 